<svg version="1.0" xmlns="http://www.w3.org/2000/svg"
 width="225.000000pt" height="225.000000pt" viewBox="0 0 225.000000 225.000000"
 preserveAspectRatio="xMidYMid meet">
<g transform="translate(0.000000,225.000000) scale(0.100000,-0.100000)"
fill="#000000" stroke="none">
<path d="M242 2058 c-9 -9 -12 -183 -12 -722 l0 -711 29 -61 c79 -168 300
-286 606 -323 116 -14 404 -14 520 0 306 37 528 156 606 323 l29 62 -2 714
c-3 666 -4 714 -20 724 -13 8 -23 8 -35 0 -16 -10 -18 -40 -23 -323 l-5 -312
-45 62 c-166 229 -530 345 -935 299 -264 -31 -478 -138 -595 -299 l-45 -62 -3
307 c-1 206 -6 312 -13 321 -14 16 -41 17 -57 1z m1360 -851 c74 -36 134 -96
166 -165 23 -48 27 -71 27 -142 0 -71 -4 -94 -27 -142 -32 -69 -92 -129 -166
-165 l-57 -28 -420 0 -420 0 -57 28 c-237 116 -266 435 -53 582 91 63 104 64
550 62 l400 -2 57 -28z"/>
<path d="M695 973 c-9 -20 -12 -40 -8 -44 10 -9 225 -100 228 -97 2 2 10 20
19 41 15 37 15 38 -7 46 -12 5 -64 27 -116 50 -52 23 -96 41 -98 41 -1 0 -10
-17 -18 -37z"/>
<path d="M1428 962 c-59 -26 -109 -50 -113 -53 -5 -5 21 -79 28 -79 2 0 46 18
98 41 52 23 104 45 116 50 21 8 21 9 6 49 -9 22 -19 40 -22 39 -3 0 -54 -21
-113 -47z"/>
</g>
</svg>
